<svg version="1.1" id="Layer_1" xmlns="http://www.w3.org/2000/svg" xmlns:xlink="http://www.w3.org/1999/xlink" x="0px" y="0px"
	 width="100%" viewBox="0 0 361 362" enable-background="new 0 0 361 362" xml:space="preserve">
<path fill="#152850" opacity="1.000000" stroke="none" 
	d="
M210.000000,363.000000 
	C141.356903,363.000000 73.213753,362.972198 5.070839,363.085449 
	C1.803434,363.090881 0.892507,362.643250 0.896301,359.073334 
	C1.021657,241.114288 1.023753,123.155022 0.891619,5.195965 
	C0.887418,1.445521 1.839330,0.911361 5.301293,0.914398 
	C122.760582,1.017428 240.219986,1.016272 357.679291,0.918877 
	C361.088715,0.916050 362.116730,1.372376 362.112305,5.176549 
	C361.975067,123.135597 361.979004,241.094849 362.101501,359.053955 
	C362.105164,362.584137 361.258148,363.098236 357.948486,363.089508 
	C308.799255,362.959900 259.649567,363.000000 210.000000,363.000000 
z"/>
<path fill="#D9D6D5" opacity="1.000000" stroke="none" 
	d="
M273.617096,239.622726 
	C237.156754,275.644562 194.049149,288.213165 145.402954,273.418274 
	C97.290047,258.785553 67.292976,225.268936 57.928410,175.525482 
	C46.076595,112.570145 82.469627,52.922916 143.525681,32.884045 
	C202.211700,13.623029 267.157318,41.197033 295.175659,97.270195 
	C318.476624,143.902573 310.187866,199.149384 273.617096,239.622726 
z"/>
<path fill="#D8D5D5" opacity="1.000000" stroke="none" 
	d="
M230.213501,319.319702 
	C230.174698,314.846039 230.123657,310.041779 229.945038,305.242279 
	C229.922684,304.641968 229.346558,303.735474 230.155518,303.669037 
	C232.617722,303.466888 235.171585,303.192352 237.561188,303.636963 
	C239.839630,304.060913 238.838043,306.382568 238.856277,307.862549 
	C238.962570,316.494446 238.794922,325.132019 239.047501,333.758118 
	C239.107864,335.819489 238.791748,336.379211 236.841278,336.288788 
	C234.544281,336.182343 232.238541,336.263824 230.260925,336.263824 
	C230.260925,330.769653 230.260925,325.681549 230.259201,320.034851 
	C229.980179,320.082550 230.746536,320.102386 230.129532,319.917969 
	C229.587051,319.755768 229.923615,319.302185 230.213501,319.319702 
z"/>
<path fill="#E4E0DD" opacity="1.000000" stroke="none" 
	d="
M106.146637,335.293610 
	C104.039513,333.511383 103.946434,331.370178 103.951859,329.176392 
	C103.965256,323.758423 104.207436,318.324280 103.870384,312.927063 
	C103.554329,307.866089 107.384918,308.183105 110.157600,308.000763 
	C113.964058,307.750427 111.553314,311.184540 112.294479,312.828156 
	C112.493683,313.269897 112.536201,313.782318 112.996567,314.573853 
	C114.819870,320.722961 114.099083,326.697479 114.432823,333.055237 
	C114.359978,334.423157 114.177078,335.298279 113.179047,336.287720 
	C111.534431,336.556122 110.253960,336.552856 108.606857,336.430420 
	C107.576553,336.163116 106.963867,335.902374 106.146637,335.293610 
z"/>
<path fill="#D9D6D5" opacity="1.000000" stroke="none" 
	d="
M164.719116,320.606323 
	C163.896881,318.775574 163.207443,317.289520 162.360855,315.464752 
	C163.074936,315.331696 163.644150,315.190186 164.222015,315.123535 
	C169.304184,314.537445 173.574310,314.630524 174.190002,321.616669 
	C174.349976,323.431702 173.412323,328.475677 178.757523,327.722992 
	C178.975189,327.692322 177.711304,331.492218 177.295517,333.542389 
	C176.907684,335.454681 175.902390,336.344421 173.851013,336.293976 
	C172.001633,336.248505 170.711349,335.812897 169.995789,333.912079 
	C168.358444,329.562622 166.575638,325.267975 164.719116,320.606323 
z"/>
<path fill="#DBD8D7" opacity="1.000000" stroke="none" 
	d="
M257.716919,329.733673 
	C256.922699,332.488922 256.064423,334.885742 255.068253,337.620728 
	C254.650757,338.335236 254.278519,338.457123 253.616867,338.114044 
	C249.306915,335.902008 248.427719,331.854736 247.062378,328.104401 
	C245.545212,323.936951 243.968735,319.791077 242.413864,315.637329 
	C242.529587,315.547058 242.645142,315.381622 242.770096,315.374146 
	C246.000870,315.181854 250.721466,313.674530 252.009552,316.066010 
	C253.348526,318.551910 253.929688,322.162109 254.853424,325.674011 
	C255.960007,327.070251 257.324463,327.803436 257.716919,329.733673 
z"/>
<path fill="#2A3B5E" opacity="1.000000" stroke="none" 
	d="
M113.207275,334.291443 
	C111.742073,327.981171 111.723854,321.875488 113.126968,315.326721 
	C113.342476,314.885376 113.472794,314.883179 113.466476,314.921570 
	C114.752419,315.650421 116.126793,315.568268 117.767395,315.157776 
	C118.515198,314.431976 119.050072,314.194031 119.851990,314.824799 
	C120.782021,315.586731 121.857239,315.456818 122.946976,316.445251 
	C124.445656,323.138092 125.790588,329.493530 121.887527,335.831055 
	C120.103676,336.954285 118.737556,336.844421 117.079651,335.983337 
	C116.488922,335.521515 116.698097,334.638733 115.525635,334.985016 
	C114.588089,335.077240 114.001167,334.888763 113.207275,334.291443 
z"/>
<path fill="#E4E0DD" opacity="1.000000" stroke="none" 
	d="
M121.946312,336.115051 
	C121.516029,329.830627 121.574776,323.600586 121.629730,316.933655 
	C121.457024,316.217285 121.288124,315.937744 121.589012,315.519287 
	C124.072639,315.294739 126.086464,315.209076 128.512924,315.259644 
	C130.204681,316.194336 130.976700,317.245026 130.603882,319.260803 
	C129.413437,324.472809 130.112671,329.343475 130.110336,335.287720 
	C127.630241,336.318909 125.032791,336.244141 121.946312,336.115051 
z"/>
<path fill="#E4E0DD" opacity="1.000000" stroke="none" 
	d="
M160.139313,336.250183 
	C157.759842,336.815430 155.739578,336.863159 153.558441,335.567566 
	C152.405502,335.059692 151.572906,334.750549 150.885498,333.526611 
	C150.255051,327.737579 150.236984,322.359467 150.713135,316.544617 
	C150.999481,315.854187 151.158020,315.597473 151.682495,315.074585 
	C152.478180,314.766693 152.907913,314.725037 153.649170,314.779083 
	C154.657196,314.980377 155.305344,315.218811 156.253571,315.618683 
	C159.437195,316.610046 160.009003,318.984924 160.103104,321.521271 
	C160.230469,324.954559 160.186768,328.394196 160.229340,332.279480 
	C160.877090,333.770477 161.117447,334.840790 160.139313,336.250183 
z"/>
<path fill="#E0DCDA" opacity="1.000000" stroke="none" 
	d="
M193.374603,325.653809 
	C192.783752,328.947906 192.900299,331.754700 195.350250,334.310669 
	C196.912079,337.171509 194.774246,336.544220 193.101074,336.671753 
	C185.472183,334.378235 183.578705,331.229614 184.602829,322.436829 
	C184.949539,321.404449 185.193512,320.798248 185.714340,319.952301 
	C185.849930,319.652130 185.910950,319.251404 186.079071,319.138184 
	C186.619797,318.509003 187.028488,318.025604 187.771271,317.423401 
	C189.140823,315.908691 190.716232,315.504730 192.638062,315.130920 
	C193.439941,315.568268 193.842453,316.022797 194.377609,316.941345 
	C195.446869,320.138275 194.969772,322.757904 193.374603,325.653809 
z"/>
<path fill="#C6C6C8" opacity="1.000000" stroke="none" 
	d="
M151.711792,314.652954 
	C151.961502,315.106903 151.874557,315.405487 151.657349,316.151978 
	C150.469208,317.523987 150.953720,318.697693 150.931503,319.831329 
	C150.833359,324.839996 148.525269,326.237122 143.273254,324.139160 
	C142.005157,322.651794 141.103012,320.767395 138.916931,323.222107 
	C137.547882,323.750153 136.523575,323.931580 134.957275,323.575500 
	C132.640915,322.434143 132.811218,320.887848 133.087265,319.151672 
	C133.278854,317.946747 133.071121,317.913727 130.831635,319.359283 
	C130.042618,318.505127 129.519135,317.334961 128.960602,315.780304 
	C130.133804,316.066132 131.208130,316.179596 132.515945,315.334015 
	C133.416153,314.751984 135.274277,314.180725 135.739807,314.622040 
	C141.069733,319.674683 146.190430,313.691650 151.711792,314.652954 
z"/>
<path fill="#E4E0DD" opacity="1.000000" stroke="none" 
	d="
M209.315277,334.452179 
	C209.084656,328.654236 209.053421,323.283875 209.051147,317.445190 
	C211.034882,313.894470 213.953873,314.707489 216.449768,315.609314 
	C218.815125,316.463989 218.172440,318.757660 217.523056,321.176208 
	C217.375732,325.396088 217.363220,329.128723 217.272339,333.294800 
	C215.143845,337.511078 212.324203,336.161743 209.315277,334.452179 
z"/>
<path fill="#C6C6C8" opacity="1.000000" stroke="none" 
	d="
M217.617355,321.383453 
	C216.425552,315.585236 216.193375,315.431763 209.435822,316.809204 
	C209.075745,316.336060 206.726379,315.547699 209.010330,315.130371 
	C211.088776,314.750641 213.355209,314.625122 215.400269,315.051636 
	C217.511108,315.491882 219.258255,315.607788 221.388199,314.802216 
	C226.124069,313.010986 227.485870,317.010071 229.775269,319.846008 
	C230.264816,319.648834 230.184494,319.490204 230.220978,319.483246 
	C228.564194,318.292480 228.374969,319.707520 228.054703,320.784485 
	C227.409698,322.953491 226.040466,324.162567 223.725418,324.030701 
	C221.624084,323.910950 220.605499,322.685730 220.063263,320.663818 
	C219.655258,319.142456 219.413071,319.207397 217.617355,321.383453 
z"/>
<path fill="#D0CECF" opacity="1.000000" stroke="none" 
	d="
M150.280609,335.706238 
	C146.703171,337.323578 143.343414,337.513519 141.206161,334.258942 
	C139.498642,331.658783 139.948837,328.863953 143.014847,326.676941 
	C144.997650,324.076782 147.488449,324.645355 149.508743,325.421265 
	C151.769623,326.289612 150.400391,328.610870 150.501099,330.314850 
	C150.549911,331.141052 150.507172,331.972900 150.702576,333.225159 
	C150.867523,334.243042 150.778793,334.807434 150.280609,335.706238 
z"/>
<path fill="#D0CECF" opacity="1.000000" stroke="none" 
	d="
M193.463379,317.453369 
	C193.114502,316.823700 193.059448,316.349915 192.994354,315.518433 
	C197.707626,314.056702 201.952621,314.535645 204.409317,319.335907 
	C206.493683,323.408691 205.415955,324.996765 200.859100,325.023132 
	C199.212601,325.032684 197.565399,324.920288 195.464355,324.920532 
	C193.624130,322.686127 196.638046,319.646484 193.463379,317.453369 
z"/>
<path fill="#3B4B6A" opacity="1.000000" stroke="none" 
	d="
M150.133255,334.510376 
	C148.191345,331.762390 149.449631,329.102692 149.917526,326.458313 
	C147.919815,325.508636 146.020065,326.063232 143.698700,326.455444 
	C143.221909,325.890930 143.166794,325.310669 143.085876,324.293976 
	C149.247238,323.908264 149.209503,323.914246 148.252411,317.876221 
	C147.880508,315.529846 149.151016,315.389343 151.216125,316.387115 
	C152.376358,322.063690 151.842056,327.542175 151.614929,333.474854 
	C151.258575,334.298798 150.899368,334.520172 150.133255,334.510376 
z"/>
<path fill="#7D8697" opacity="1.000000" stroke="none" 
	d="
M258.000000,329.863586 
	C256.124908,329.612152 255.221176,328.473114 254.933563,326.429688 
	C259.564056,324.609497 258.883179,320.536224 259.226501,317.102783 
	C259.296722,316.400482 257.855408,315.426941 259.400757,314.880493 
	C260.796997,314.386810 262.516205,314.109680 263.690186,315.050079 
	C265.326447,316.360748 263.077454,316.748749 262.740723,317.627319 
	C261.210022,321.620880 259.722290,325.630920 258.000000,329.863586 
z"/>
<path fill="#D8D5D5" opacity="1.000000" stroke="none" 
	d="
M247.229034,346.798553 
	C241.121643,346.672119 239.988953,345.100922 242.206024,339.754639 
	C243.496078,339.223145 244.493378,339.058838 246.022751,339.344727 
	C248.409225,340.808380 248.744522,342.337158 246.778900,344.484100 
	C248.163528,344.677917 247.488876,345.796875 247.229034,346.798553 
z"/>
<path fill="#7D8697" opacity="1.000000" stroke="none" 
	d="
M192.907455,336.805847 
	C193.460068,335.849426 194.893295,336.374725 195.533783,334.855347 
	C199.294617,334.633301 202.412155,333.624481 204.236588,328.915497 
	C204.781891,335.471954 200.940338,337.806213 192.907455,336.805847 
z"/>
<path fill="#3B4B6A" opacity="1.000000" stroke="none" 
	d="
M193.122986,317.728363 
	C194.900314,315.624695 196.443665,315.553497 196.868103,318.215210 
	C197.210815,320.364502 197.803482,322.780365 195.305817,324.744385 
	C194.563995,325.291046 194.117813,325.604584 193.395370,325.974945 
	C193.104874,323.407623 193.090637,320.783417 193.122986,317.728363 
z"/>
<path fill="#9CA1AB" opacity="1.000000" stroke="none" 
	d="
M247.246582,347.194153 
	C246.800171,346.470184 246.602112,345.894714 246.457977,345.095581 
	C251.208115,345.335968 251.343170,341.187714 253.172836,338.191925 
	C253.744415,337.881012 254.081879,337.894470 254.674850,337.933411 
	C253.879059,342.217651 252.743042,346.409302 247.246582,347.194153 
z"/>
<path fill="#C6C6C8" opacity="1.000000" stroke="none" 
	d="
M208.977936,334.249634 
	C211.575409,335.227051 214.059830,335.528870 216.891205,333.979706 
	C217.327576,334.581360 219.571060,335.615082 217.953262,335.982941 
	C214.833664,336.692383 211.464172,336.880249 208.253647,335.794739 
	C208.449097,335.354706 208.644547,334.914703 208.977936,334.249634 
z"/>
<path fill="#9CA1AB" opacity="1.000000" stroke="none" 
	d="
M180.318604,321.852173 
	C179.494247,320.270294 181.014038,318.539886 180.110413,316.731049 
	C179.501541,315.512207 180.066956,314.871826 181.422913,314.907227 
	C182.892883,314.945587 183.771957,315.643036 183.056671,317.062042 
	C182.272110,318.618439 182.537994,320.783295 180.318604,321.852173 
z"/>
<path fill="#9CA1AB" opacity="1.000000" stroke="none" 
	d="
M160.154663,336.625183 
	C159.908630,335.513550 160.008133,334.500000 160.174927,333.107117 
	C162.721771,333.934967 162.194977,330.585876 163.863190,330.338470 
	C164.235580,333.318481 163.573044,335.642792 160.154663,336.625183 
z"/>
<path fill="#7D8697" opacity="1.000000" stroke="none" 
	d="
M115.756546,334.145325 
	C116.857857,332.712769 116.787865,330.887054 118.572929,330.333557 
	C119.489418,332.437775 118.008728,333.761932 116.964241,335.557037 
	C116.795639,335.854950 116.383728,335.926208 116.174751,335.922089 
	C115.620293,335.496246 115.480812,335.014832 115.756546,334.145325 
z"/>
<path fill="#9CA1AB" opacity="1.000000" stroke="none" 
	d="
M115.601013,333.945190 
	C115.971130,334.283691 115.976501,334.750519 115.973816,335.567657 
	C115.123337,336.228943 114.280891,336.539917 113.126678,336.705109 
	C112.831360,335.940308 112.847809,335.321259 112.901031,334.393677 
	C113.703949,334.081299 114.470108,334.077393 115.601013,333.945190 
z"/>
<path fill="#9CA1AB" opacity="1.000000" stroke="none" 
	d="
M149.810715,334.701416 
	C150.190521,334.291260 150.565796,334.159149 151.234985,333.980103 
	C152.045090,334.204956 152.561325,334.476715 153.171082,335.037476 
	C152.463684,335.533051 151.662735,335.739594 150.449341,336.006409 
	C149.959991,335.704285 149.883102,335.341858 149.810715,334.701416 
z"/>
<path fill="#9CA1AB" opacity="1.000000" stroke="none" 
	d="
M246.339813,339.233307 
	C245.518311,339.527100 244.516098,339.598694 243.013962,339.604309 
	C243.566971,338.241913 244.863876,338.632263 246.339813,339.233307 
z"/>
<path fill="#2A3B5E" opacity="1.000000" stroke="none" 
	d="
M131.484772,335.268677 
	C132.487488,335.065491 133.339951,335.256226 133.131241,336.047699 
	C132.786987,337.353241 131.663635,337.014923 130.462555,336.568604 
	C130.227692,336.393646 129.888229,336.042755 129.863647,335.799866 
	C130.291092,335.525848 130.742584,335.488373 131.484772,335.268677 
z"/>
<path fill="#9CA1AB" opacity="1.000000" stroke="none" 
	d="
M134.637054,323.663269 
	C135.479126,323.398865 136.507614,323.357849 138.048447,323.377869 
	C137.442444,324.651825 136.142288,324.347107 134.637054,323.663269 
z"/>
<path fill="#9CA1AB" opacity="1.000000" stroke="none" 
	d="
M105.969925,335.387207 
	C106.562599,335.343292 107.252800,335.587036 108.091614,336.071014 
	C107.359718,336.632568 106.685547,336.249451 105.969925,335.387207 
z"/>
<path fill="#D0CECF" opacity="1.000000" stroke="none" 
	d="
M187.756561,317.284760 
	C187.607285,317.783844 187.191238,318.337158 186.511200,318.957733 
	C186.661392,318.462982 187.075592,317.900970 187.756561,317.284760 
z"/>
<path fill="#D0CECF" opacity="1.000000" stroke="none" 
	d="
M185.608368,319.799896 
	C185.650452,320.340576 185.450958,321.029022 185.029907,321.886017 
	C184.994492,321.352264 185.180634,320.649963 185.608368,319.799896 
z"/>
<path fill="#7D8697" opacity="1.000000" stroke="none" 
	d="
M117.568665,314.865204 
	C116.880089,316.527924 115.429947,316.249054 113.689339,315.277100 
	C114.678062,314.908417 115.895958,314.856873 117.568665,314.865204 
z"/>
<path fill="#C6C6C8" opacity="1.000000" stroke="none" 
	d="
M156.465179,315.438751 
	C155.907501,315.543182 155.215195,315.432953 154.241776,315.098755 
	C154.827621,314.468781 155.578812,314.848389 156.465179,315.438751 
z"/>
<path fill="#C6C6C8" opacity="1.000000" stroke="none" 
	d="
M131.475021,335.177307 
	C131.299133,335.263397 130.822159,335.433014 130.092133,335.579834 
	C129.839081,335.557007 129.790894,335.320557 129.862671,335.223572 
	C130.347610,335.171356 130.760773,335.216125 131.475021,335.177307 
z"/>
<path fill="#C6C6C8" opacity="1.000000" stroke="none" 
	d="
M121.725487,315.273010 
	C122.017014,315.578064 121.975220,315.775696 121.779678,316.235077 
	C121.205765,316.141144 120.785606,315.785461 120.184288,315.218994 
	C120.466141,315.060638 120.929153,315.113129 121.725487,315.273010 
z"/>
<path fill="#9CA1AB" opacity="1.000000" stroke="none" 
	d="
M180.041504,322.070312 
	C180.032089,322.094208 179.849579,322.056885 179.849579,322.056885 
	C179.849579,322.056885 180.069107,322.169952 180.083191,322.100800 
	C180.097260,322.031647 180.050903,322.046387 180.041504,322.070312 
z"/>
<path fill="#162950" opacity="1.000000" stroke="none" 
	d="
M275.737671,77.339401 
	C305.681091,117.217743 311.365082,159.907257 290.571716,204.961151 
	C264.717957,260.979767 198.454971,287.568329 140.488068,266.156738 
	C76.578903,242.550217 44.947525,172.388763 69.587158,108.891670 
	C100.534325,29.139872 205.112000,6.731498 265.990387,66.831955 
	C269.303131,70.102394 272.351959,73.640236 275.737671,77.339401 
z"/>
<path fill="#D8D5D5" opacity="1.000000" stroke="none" 
	d="
M159.781815,108.337936 
	C161.490005,106.429169 163.398560,106.010567 165.399811,105.623062 
	C178.476257,103.091042 191.544449,100.515320 204.602493,97.890045 
	C207.095535,97.388817 209.501556,97.334122 212.011063,97.838913 
	C226.374695,100.728195 240.761765,103.500732 255.127594,106.379227 
	C261.581848,107.672470 262.681488,108.990181 262.686615,115.364944 
	C262.711121,145.839386 262.717621,176.313873 262.683655,206.788300 
	C262.675476,214.124939 260.325409,216.000916 253.056793,214.572433 
	C239.496628,211.907455 225.942627,209.209915 212.402527,206.445297 
	C209.734253,205.900497 207.175293,205.893814 204.504150,206.437454 
	C189.983490,209.392807 175.436691,212.219681 160.917053,215.179962 
	C158.244858,215.724777 155.693665,215.712646 153.025406,215.170242 
	C138.830139,212.284561 124.611328,209.515137 110.408478,206.666473 
	C103.822495,205.345535 102.822815,204.093460 102.819778,197.232285 
	C102.806427,167.090881 102.818024,136.949463 102.807755,106.808052 
	C102.806671,103.620407 102.440407,100.163994 106.009026,98.564835 
	C109.456436,97.019997 112.945366,98.396828 116.168907,99.590446 
	C118.345421,100.396370 118.217903,102.360298 116.669998,104.438095 
	C110.373749,108.136147 111.299614,113.993172 111.308372,119.540565 
	C111.348198,144.758499 111.244942,169.976532 111.397705,195.584808 
	C111.580276,196.869781 111.851196,197.701859 112.876312,198.414810 
	C113.742287,198.740372 114.315880,198.980988 115.204681,199.302658 
	C116.150475,199.627548 116.808693,199.667496 117.839973,199.581451 
	C127.092567,200.880402 135.854584,202.872269 144.670807,204.565964 
	C151.359451,205.850937 151.687393,205.724869 151.737488,198.696152 
	C151.755280,196.198303 151.528900,193.678482 151.783249,191.206635 
	C152.433060,184.891907 150.940918,179.092163 147.955826,173.165314 
	C147.845108,172.213318 147.908371,171.670090 148.227173,170.752411 
	C150.982056,168.213226 151.747635,165.463364 151.784317,162.114807 
	C151.868668,154.420746 151.305984,146.741928 151.496002,138.628601 
	C151.557541,137.918686 151.586716,137.632156 151.707916,136.916718 
	C151.965897,135.909897 152.234528,135.384216 152.928162,134.598267 
	C153.515396,134.146408 153.777145,134.005417 154.466354,133.753143 
	C160.592773,133.658203 161.948563,134.843826 162.180725,140.548279 
	C162.478485,147.864151 162.226471,155.189056 162.318359,162.509598 
	C162.350433,165.065750 162.766693,167.267395 164.962540,169.150543 
	C168.190567,171.918854 168.427780,174.646790 165.425949,177.698181 
	C162.933975,180.231293 162.250122,182.974503 162.289963,186.249695 
	C162.348648,191.074142 162.161942,195.903976 162.364990,200.723877 
	C162.547485,205.056168 163.726028,205.999039 168.051498,205.201416 
	C177.700226,203.422104 187.285645,201.311111 196.931458,199.516403 
	C201.084824,198.743637 202.381271,196.362671 202.820999,192.248718 
	C203.605286,184.911346 202.762436,177.661423 202.731232,170.373871 
	C202.652130,151.904816 202.727417,133.435196 202.693893,114.965858 
	C202.680252,107.450890 202.051208,106.972816 194.520767,108.406960 
	C185.374451,110.148827 176.280655,112.162689 167.125732,113.849510 
	C161.721008,114.845329 159.663300,113.268036 159.781815,108.337936 
z"/>
<path fill="#1C2E54" opacity="1.000000" stroke="none" 
	d="
M159.773743,107.880661 
	C160.143646,112.336128 162.883606,112.201500 165.975555,111.572060 
	C177.568222,109.212143 189.190048,106.987083 200.745819,104.459427 
	C204.199203,103.704056 205.465866,104.182220 205.449081,108.057045 
	C205.322037,137.386627 205.331787,166.717178 205.443527,196.046875 
	C205.456131,199.358292 204.382294,200.681366 201.117920,201.283005 
	C188.829788,203.547745 176.583420,206.045761 164.347122,208.580521 
	C161.365494,209.198196 159.740448,209.109314 159.859543,205.265640 
	C160.112289,197.107712 159.960648,188.936371 159.920273,180.770798 
	C159.909653,178.621201 159.878632,176.744995 162.942352,176.951996 
	C165.200851,177.104630 165.541931,175.034164 165.847824,173.514313 
	C166.326843,171.134384 164.197601,171.297836 162.877930,171.315628 
	C159.854172,171.356384 159.913803,169.470459 159.921906,167.344040 
	C159.956818,158.178513 159.952209,149.012711 159.923187,139.847137 
	C159.912216,136.378784 159.280975,133.539230 154.325974,135.324341 
	C152.410080,131.220398 155.121033,130.468903 157.852524,129.992935 
	C160.783661,129.482132 163.835037,130.080170 166.746979,129.265457 
	C168.357086,128.814972 170.023315,128.242676 170.306152,126.259010 
	C170.579163,124.344246 169.345978,123.171036 167.912262,122.236160 
	C165.687759,120.785652 163.173508,119.845901 160.935867,118.423447 
	C156.670151,115.711769 155.502808,112.235863 157.455261,107.249550 
	C158.331558,107.263092 158.909790,107.506714 159.773743,107.880661 
z"/>
<path fill="#14274F" opacity="1.000000" stroke="none" 
	d="
M148.526596,171.927277 
	C149.208420,170.925125 150.636963,170.678589 150.603485,170.925278 
	C150.060730,174.923492 154.143250,177.239899 154.084427,181.071411 
	C153.962433,189.020660 153.931000,196.975647 154.103851,204.923019 
	C154.174713,208.180206 153.423584,209.369843 149.901932,208.600540 
	C139.225098,206.268265 128.488968,204.207352 117.395103,201.854736 
	C116.539726,201.380173 116.055275,201.119278 115.203506,201.155380 
	C114.181473,201.142517 113.433632,201.092682 112.349457,200.865555 
	C111.213234,200.118423 110.286591,199.790955 109.186180,199.169708 
	C108.842957,187.350937 108.684357,175.698349 108.650803,164.045395 
	C108.600410,146.549469 108.637726,129.053299 108.637650,111.557228 
	C108.637611,104.139938 108.637497,104.139938 116.119278,104.756798 
	C117.406746,104.832916 118.298775,104.904816 119.638298,104.987320 
	C123.548302,107.926132 124.384560,114.501305 121.913803,119.485306 
	C120.951294,121.426872 119.555710,123.114944 118.610222,125.068474 
	C118.082710,126.158409 117.704063,127.295418 118.575600,128.345901 
	C119.585396,129.563034 120.928238,129.392700 122.248695,128.953934 
	C123.208061,128.635147 124.090714,128.114853 124.790146,127.403580 
	C129.004883,123.117462 133.631989,123.509102 138.769623,126.371620 
	C139.402496,127.002151 139.690063,127.418434 140.064178,128.217178 
	C141.085480,132.535416 138.562958,135.489258 137.127380,138.764404 
	C136.464233,140.277298 135.613831,141.707260 135.059067,143.269302 
	C134.444458,144.999847 134.529114,146.584030 136.355408,147.531998 
	C137.964233,148.367096 139.543518,148.383820 140.843338,146.868683 
	C142.672089,144.737000 144.380219,142.496628 146.211868,140.380600 
	C147.842117,138.497208 149.197510,135.747604 152.804413,136.768738 
	C154.814758,137.991089 153.986145,139.673218 154.000168,141.011414 
	C154.088516,149.442200 153.901657,157.878006 154.115845,166.304276 
	C154.208603,169.953445 152.857788,172.130234 149.196289,172.638763 
	C147.243820,172.900818 145.502411,173.329956 143.261337,172.908417 
	C142.410278,172.819809 141.927887,172.804199 141.107803,172.875336 
	C139.964630,173.352386 138.687561,173.584167 140.293396,174.961029 
	C141.008118,175.153625 141.430466,175.204590 142.184708,175.204254 
	C144.942139,175.113312 146.539505,173.515091 148.526596,171.927277 
z"/>
<path fill="#DBD8D7" opacity="1.000000" stroke="none" 
	d="
M153.037781,137.022491 
	C151.222305,135.834259 151.042984,137.824966 150.429703,138.554718 
	C147.866119,141.605240 145.342087,144.704468 143.032318,147.948700 
	C140.454773,151.569031 137.283218,150.826752 134.222046,149.210052 
	C130.781494,147.392990 131.942627,144.592285 133.235718,141.897339 
	C135.174728,137.856247 137.044373,133.781860 138.958008,129.359497 
	C138.697235,128.736984 138.457672,128.447098 138.199585,127.849823 
	C133.252716,124.829735 128.957916,124.862305 125.165756,129.706863 
	C122.710968,132.842911 119.272102,132.844711 116.343399,130.477875 
	C113.348587,128.057617 114.973320,125.196175 116.950050,123.125969 
	C121.852425,117.991783 122.360443,112.137589 120.303558,105.356186 
	C120.397110,102.492302 120.537292,99.704002 123.833626,99.389984 
	C127.117935,99.077118 129.778198,100.322800 130.794403,103.753296 
	C132.105774,108.180244 134.086105,111.458740 139.501266,111.652893 
	C142.300949,111.753265 143.487381,111.451195 143.360275,108.427673 
	C143.185471,104.270363 143.309052,100.100822 143.287872,95.936615 
	C143.272980,93.006912 143.973145,90.339287 147.413239,90.220650 
	C150.613388,90.110283 153.881165,90.578835 154.765213,94.654182 
	C155.612564,98.560371 156.485245,102.461075 157.550049,106.691833 
	C157.602707,112.546928 159.838867,116.362427 165.301132,118.207634 
	C167.299240,118.882607 169.121323,120.158974 170.921188,121.319923 
	C173.106659,122.729607 173.857788,124.842377 173.196304,127.347931 
	C172.578323,129.688797 170.892975,130.979416 168.552750,131.174652 
	C165.431351,131.435013 162.289795,131.626907 159.161499,131.574295 
	C156.818970,131.534897 154.891006,131.881821 153.906876,134.669678 
	C153.943253,135.086746 154.006851,135.017426 154.009476,134.970459 
	C153.566315,135.376053 153.516113,135.990204 153.153076,136.784088 
	C152.960648,137.013031 153.013596,137.039551 153.037781,137.022491 
z"/>
<path fill="#1B2D54" opacity="1.000000" stroke="none" 
	d="
M213.141785,200.634491 
	C210.700378,199.270035 211.348892,197.252563 211.346695,195.518814 
	C211.310181,166.532410 211.369598,137.545761 211.258789,108.559723 
	C211.244644,104.863846 211.909286,103.511002 216.027206,104.425705 
	C228.220047,107.134094 240.482559,109.546310 252.763153,111.830612 
	C256.018494,112.436134 257.054657,113.735558 257.040497,117.054062 
	C256.916077,146.206711 256.908417,175.360382 257.041718,204.512955 
	C257.059143,208.324387 256.272461,209.425369 252.276474,208.555634 
	C239.421204,205.757629 226.484497,203.333832 213.141785,200.634491 
z"/>
<path fill="#C6C6C8" opacity="1.000000" stroke="none" 
	d="
M148.824738,171.840607 
	C149.001144,175.542603 148.101822,178.193741 143.062607,176.855270 
	C140.072922,175.366837 140.490677,173.462036 142.285065,171.381195 
	C144.646378,171.213211 146.499268,170.704605 148.589005,171.900467 
	C148.924225,172.096634 148.818649,171.900528 148.824738,171.840607 
z"/>
<path fill="#1C2E54" opacity="1.000000" stroke="none" 
	d="
M108.943359,199.351791 
	C110.012787,199.044144 111.084679,199.072723 111.884476,200.401550 
	C110.819206,200.886932 109.703629,200.842087 108.943359,199.351791 
z"/>
<path fill="#1C2E54" opacity="1.000000" stroke="none" 
	d="
M115.134872,201.393982 
	C115.573936,200.422684 116.215057,200.219772 116.931549,201.436493 
	C116.456322,201.644379 115.898376,201.620010 115.134872,201.393982 
z"/>
<path fill="#1C2E54" opacity="1.000000" stroke="none" 
	d="
M153.410736,137.121460 
	C151.671982,136.206787 152.838379,135.698105 153.602844,135.007309 
	C155.217484,135.774673 154.283264,136.485504 153.410736,137.121460 
z"/>
<path fill="#C1C1C5" opacity="1.000000" stroke="none" 
	d="
M168.806366,174.905350 
	C171.498047,174.296310 172.889252,175.825241 173.289978,177.760910 
	C173.592911,179.224152 172.149277,180.571381 170.813507,181.166489 
	C169.106430,181.927032 168.047882,180.356354 167.181335,179.271454 
	C165.669052,177.378082 167.673523,176.370941 168.806366,174.905350 
z"/>
<path fill="#C1C1C5" opacity="1.000000" stroke="none" 
	d="
M199.732193,179.397095 
	C203.075241,179.555954 202.941071,181.473160 202.601700,183.583099 
	C202.333115,185.252823 201.357422,185.633087 199.818054,185.511597 
	C198.083710,185.374695 197.162048,184.592682 196.895325,182.855515 
	C196.587967,180.853577 196.547134,179.155777 199.732193,179.397095 
z"/>
<path fill="#C6C6C8" opacity="1.000000" stroke="none" 
	d="
M182.670990,184.948395 
	C185.718079,184.175522 186.368484,186.145187 186.978912,188.050018 
	C187.332840,189.154388 186.824005,189.971329 185.697464,190.275223 
	C183.927170,190.752792 181.774826,191.222977 180.664673,189.662827 
	C179.397400,187.881836 181.383118,186.482361 182.670990,184.948395 
z"/>
<path fill="#C6C6C8" opacity="1.000000" stroke="none" 
	d="
M194.458466,186.343338 
	C192.739059,187.052643 191.344391,189.003113 189.789764,187.200485 
	C188.986008,186.268524 188.321655,184.781250 188.422073,183.616196 
	C188.543915,182.202225 190.277145,181.575470 191.487579,181.468460 
	C194.933823,181.163803 194.684937,183.794006 194.458466,186.343338 
z"/>
<path fill="#C6C6C8" opacity="1.000000" stroke="none" 
	d="
M178.644958,185.639832 
	C176.185013,188.430725 174.911789,185.977051 173.701080,184.818146 
	C172.148712,183.332214 173.874634,182.219742 174.663559,181.107620 
	C175.559814,179.844177 176.575073,179.563019 177.912811,180.676880 
	C179.537796,182.029922 181.031677,183.277084 178.644958,185.639832 
z"/>
<path fill="#DBD8D7" opacity="1.000000" stroke="none" 
	d="
M134.169464,153.804321 
	C138.173218,155.209015 139.908127,157.762909 139.135712,161.584122 
	C138.280472,165.814972 136.001129,169.204727 132.177460,171.342606 
	C131.062897,171.965775 129.861908,171.347717 129.015213,170.510269 
	C127.846573,169.354355 126.653801,168.165924 125.757568,166.803192 
	C123.796143,163.820801 122.287125,160.530762 124.202560,157.055984 
	C126.295799,153.258713 130.012985,153.177689 134.169464,153.804321 
z"/>
<path fill="#C1C1C5" opacity="1.000000" stroke="none" 
	d="
M140.116058,176.574219 
	C138.467102,177.035797 136.993271,177.169632 136.951202,175.314514 
	C136.915314,173.732040 136.011917,171.549408 139.215179,171.187744 
	C141.596161,172.553909 141.034363,174.389954 140.116058,176.574219 
z"/>
<path fill="#1C2E54" opacity="1.000000" stroke="none" 
	d="
M140.271149,176.910995 
	C139.790146,175.264526 139.789612,173.611893 139.686066,171.556183 
	C140.302979,171.175110 141.022903,171.197144 142.280289,171.284485 
	C142.768066,172.892609 142.718369,174.435455 142.668396,176.366730 
	C142.029282,176.805069 141.390457,176.854950 140.271149,176.910995 
z"/>
<path fill="#1C2E54" opacity="1.000000" stroke="none" 
	d="
M138.231628,127.836899 
	C138.496521,127.827713 138.847610,128.083542 139.085602,128.668365 
	C138.754272,128.698883 138.536057,128.400406 138.231628,127.836899 
z"/>
<path fill="#2F3F61" opacity="1.000000" stroke="none" 
	d="
M127.817062,115.102203 
	C132.882874,115.771919 137.883575,116.879761 142.905731,117.879906 
	C147.119400,118.719040 149.243805,117.015419 149.149872,112.603081 
	C149.065247,108.628136 149.132019,104.649963 149.465988,100.606476 
	C151.570526,104.209373 152.062729,108.304573 152.750595,112.247986 
	C153.585342,117.033470 155.203354,120.746002 160.393997,122.106850 
	C161.984360,122.523796 163.348846,123.802277 164.921875,125.600945 
	C153.738647,122.748299 148.629044,130.653580 142.799561,137.416489 
	C142.187912,134.301956 143.775330,132.423920 144.871674,130.389801 
	C147.443741,125.617630 146.654099,123.428406 141.287308,122.100510 
	C136.700150,120.965523 132.297333,118.503754 127.268593,119.783829 
	C126.341400,118.149590 128.064529,116.934204 127.817062,115.102203 
z"/>
<path fill="#2F3F61" opacity="1.000000" stroke="none" 
	d="
M127.490143,112.628616 
	C127.459564,112.579720 127.520729,112.677505 127.490143,112.628616 
z"/>
<path fill="#DBD8D7" opacity="1.000000" stroke="none" 
	d="
M218.612213,132.098923 
	C217.465500,128.124100 218.042984,125.015335 221.675461,123.275070 
	C225.259460,121.558044 228.951599,121.708534 231.950317,124.423546 
	C235.112091,127.286194 234.073776,130.769547 232.462006,134.061371 
	C231.954849,135.097214 231.271545,136.067703 230.551392,136.974838 
	C227.040283,141.397537 225.033737,141.468231 221.562653,137.137451 
	C220.435944,135.731674 219.675583,134.032272 218.612213,132.098923 
z"/>
<path fill="#C1C1C5" opacity="1.000000" stroke="none" 
	d="
M246.580841,167.169525 
	C245.967957,169.699387 246.817398,173.469650 242.551682,172.174271 
	C241.240540,171.776108 239.368057,170.629974 240.379471,168.449203 
	C241.730377,165.536407 243.987030,165.690002 246.580841,167.169525 
z"/>
<path fill="#C6C6C8" opacity="1.000000" stroke="none" 
	d="
M236.802628,149.585876 
	C236.035568,149.772720 234.954483,149.763092 233.908310,149.567062 
	C231.565582,149.128036 231.226486,147.722733 231.820496,145.566345 
	C232.432816,143.343582 233.688293,143.140884 235.509491,143.824768 
	C237.286743,144.492126 239.145844,145.114395 237.463058,147.593750 
	C237.097244,148.132690 236.821609,148.732849 236.802628,149.585876 
z"/>
<path fill="#C6C6C8" opacity="1.000000" stroke="none" 
	d="
M217.711609,187.215240 
	C215.506729,187.109985 213.552628,187.114655 213.812302,184.412933 
	C213.932953,183.157623 213.705704,181.577484 215.394958,181.225235 
	C216.821732,180.927734 218.760086,180.804962 219.405014,182.155487 
	C220.220444,183.863068 220.198547,185.956955 217.711609,187.215240 
z"/>
<path fill="#C6C6C8" opacity="1.000000" stroke="none" 
	d="
M245.105286,162.599823 
	C243.322098,163.509216 241.633011,165.145187 240.106598,163.270355 
	C239.258469,162.228638 238.458130,160.569778 239.318192,159.139847 
	C240.032104,157.952881 241.608276,157.669342 242.853241,157.790909 
	C245.661682,158.065125 245.057724,160.478683 245.105286,162.599823 
z"/>
<path fill="#C6C6C8" opacity="1.000000" stroke="none" 
	d="
M237.014130,149.949310 
	C238.619339,151.113007 240.723083,147.656204 242.119064,150.434723 
	C242.750061,151.690598 243.713486,153.174667 242.563828,154.536972 
	C241.583084,155.699158 239.784729,156.367615 238.583618,155.827530 
	C236.530762,154.904449 236.490265,152.775635 237.058472,150.304276 
	C237.100815,149.866928 237.046860,149.926193 237.014130,149.949310 
z"/>
<path fill="#C6C6C8" opacity="1.000000" stroke="none" 
	d="
M235.353256,174.844696 
	C236.679733,172.976776 237.776077,171.393738 239.843246,173.416870 
	C240.751785,174.306076 242.311081,174.936966 241.380066,176.608551 
	C240.563248,178.075119 239.545883,179.618057 237.538849,179.155792 
	C235.510620,178.688644 234.299469,177.463745 235.353256,174.844696 
z"/>
<path fill="#C6C6C8" opacity="1.000000" stroke="none" 
	d="
M235.947647,181.413269 
	C236.610291,184.219818 234.622528,185.174881 233.096832,186.298523 
	C232.242477,186.927719 231.635254,186.008469 231.174057,185.323349 
	C229.981506,183.551804 229.335739,181.840378 231.214645,180.017349 
	C233.387421,177.909180 234.342087,180.268677 235.947647,181.413269 
z"/>
<path fill="#C1C1C5" opacity="1.000000" stroke="none" 
	d="
M224.320618,188.001633 
	C221.021652,186.943375 222.154312,184.747849 222.716675,183.072189 
	C223.367599,181.132675 225.160370,181.978058 226.500000,182.280502 
	C228.479080,182.727310 228.146027,184.407623 228.139221,185.848175 
	C228.127670,188.292297 226.467056,188.236938 224.320618,188.001633 
z"/>
<path fill="#9CA1AB" opacity="1.000000" stroke="none" 
	d="
M226.264786,147.343170 
	C225.944763,146.718506 225.795380,146.389664 225.826538,146.078903 
	C225.987595,144.472595 225.956543,142.664124 227.841324,142.022354 
	C228.669617,141.740341 229.713318,142.498886 229.541611,143.313858 
	C229.164337,145.104477 230.122437,148.051422 226.264786,147.343170 
z"/>
<path fill="#3B4B6A" opacity="1.000000" stroke="none" 
	d="
M132.896164,162.499786 
	C130.691101,165.482742 130.120773,163.152481 129.445969,161.794968 
	C128.828186,160.552200 129.195816,159.429428 130.700760,159.204132 
	C133.023529,158.856400 133.729706,159.986298 132.896164,162.499786 
z"/>
<path fill="#3B4B6A" opacity="1.000000" stroke="none" 
	d="
M223.984283,129.846634 
	C224.976578,127.352051 226.505783,127.373116 227.735260,128.985489 
	C228.634964,130.165359 227.849777,131.823044 226.762238,132.432892 
	C224.559265,133.668198 224.662369,131.334290 223.984283,129.846634 
z"/>
</svg>